<?xml version="1.0" encoding="UTF-8"?>
<svg version="1.1" viewBox="0 0 600 600" width="300" height="300" xmlns="http://www.w3.org/2000/svg">
  <defs>
    <filter id="blur">
      <feGaussianBlur in="SourceGraphic" stdDeviation="2" />
    </filter>
  </defs>
  <path transform="translate(0)" d="m0 0h300v300h-300z" fill="transparent"/>
  <g filter="url(#blur)">
    <path transform="translate(240, 5)" d="m0 0h84l44 11 21 7 21 9 16 8 18 10 19 13 13 10 14 12 21 21 9 11 13 17 15 24 13 25 11 28 7 24 5 23 3 25 1 14v25l-3 29-5 27-7 25-8 22-10 22-13 23-16 23-11 13-7 8-9 10-7 7h-2v2l-11 9-16 13-23 15-26 14-19 8-9 2-9-1-6-4-6-7-3-10 3-7 5-5 10-7 20-12 10-8 9-10 8-15 3-12v-13l-4-13-5-9-8-9-10-6-13-4-7-1h-15l-10 2-12 5-20 12-22 14-21 13-24 15-19 12-26 16-19 12-21 13-11 5-6-1-6-4-3-6v-9l4-7 10-7 18-11 48-30 19-12 13-8 19-12 13-8 19-12 26-16 19-12 21-13 24-15 12-8 7-6 9-12 7-15 2-8v-20l-4-11-8-11-8-6-10-5-13-3h-17l-16 4-16 8-17 10-15 9-22 13-25 15-27 16-20 12-27 16-15 9-3 1h-7l-5-4-4-7v-7l3-5 8-6 29-17 20-12 22-13 15-9 27-16 20-12 22-13 14-9 10-9 9-12 6-14 2-8v-18l-4-11-7-11-10-8-12-5-9-2h-20l-13 3-16 8-23 15-20 12-16 10-19 12-21 13-19 12-23 14-22 14-26 16-22 14-21 13-12 7-8 1-8-5-4-7v-8l4-6 13-9 21-13 72-45 31-19 20-12 14-9 10-9 7-10 5-12 3-11v-18l-5-13-9-13-8-7-10-5-11-3h-15l-14 5-20 12-13 8-6 3h-9l-7-5-5-9-1-2v-7l4-9 7-9 13-11 21-14 21-12 24-11 25-9 32-8 14-3z" fill="#0357BA"/>
  </g>
</svg>